# xmcd
#
# Track frame offsets:
#	150
#	20148
#	38389
#	56220
#	75058
#	95115
#	117370
#	138187
#	161412
#	180466
#	204196
#	231094
#	256341
#	284450
#
# Disc length: 4152 seconds
#
# Revision: 1
# Processed by: cddbd v1.5.1PL0 Copyright (c) Steve Scherf et al.
# Submitted via: EasyCDDAExtractor 7.0.4.1
#
DISCID=b110360e
DTITLE=Rohff - La Fierté Des Notres - Cd2
DYEAR=2004
DGENRE=Hip-Hop
TTITLE0=Fils A Pap
TTITLE1=T'es Pas Comme Moi
TTITLE2=Bling Bling (Feat. Amiral T)
TTITLE3=Apparences Trompeuses
TTITLE4=Sincere
TTITLE5=Toujours Ton Enfant
TTITLE6=Fiston (Feat. J-Mi Sissoko)
TTITLE7=Pervertie
TTITLE8=Hollywood Style
TTITLE9=Zone International (Feat. Roldan G and Riviero)
TTITLE10=94
TTITLE11=Le Mot D'ordre
TTITLE12=Code 187 (Feat. Kamelancien, Alibi Montana and Sefyu)
TTITLE13=Outro - J'rappe Mieux Que Toi
EXTD=
EXTT0=
EXTT1=
EXTT2=
EXTT3=
EXTT4=
EXTT5=
EXTT6=
EXTT7=
EXTT8=
EXTT9=
EXTT10=
EXTT11=
EXTT12=
EXTT13=
PLAYORDER=
